<svg width="91" height="40" viewBox="0 0 91 40" fill="none" xmlns="http://www.w3.org/2000/svg">
<path d="M89.9531 36.8068L88.8519 38.75L87.7506 37.6705L86.2088 34.2159L85.3278 35.9432L84.4468 34.8636L82.6848 35.9432L81.8038 33.7841L79.6012 31.625L77.6189 32.2727L76.7379 29.0341L74.7557 25.5795L72.9936 29.0341L72.1126 28.1705L71.2316 29.8977L70.1303 27.5227L66.8265 24.7159L65.9455 27.5227L64.4038 24.0682L62.4215 22.5568L61.1 24.0682L60.4392 19.9659L59.3379 21.9091L57.3557 19.9659L56.0341 21.0455V17.8068L53.8316 16.7273L52.5101 21.0455L50.9683 19.3182V21.9091L48.5455 19.9659L47.224 24.0682L45.462 25.5795L44.1405 24.0682L42.5987 18.6705L41.2772 21.9091L40.3962 18.6705L37.7531 21.0455V18.6705L36.4316 16.7273V19.9659L34.2291 24.0682L33.5683 21.0455L33.1278 18.4545L32.467 19.9659L30.9253 16.7273L29.824 18.4545L28.5025 23.6364L26.9607 22.5568L25.6392 19.9659L24.3177 21.0455L23.2164 18.4545L21.2341 17.8068V13.0568L19.4721 12.4091V9.81818L16.6088 10.8977L15.9481 5.93182L14.186 3.77273V6.79545L13.0848 9.81818H11.9835L10.662 3.34091L9.34046 6.79545L8.45946 5.28409L7.13792 4.85227L6.25692 2.26136L4.71515 3.77273L4.38477 2.80114L2.29237 0.75L0.750595 4.85227" stroke="#39C337" stroke-width="1.5" stroke-linecap="round" stroke-linejoin="round"/>
</svg>
