<svg width="191" height="32" viewBox="0 0 191 32" fill="none" xmlns="http://www.w3.org/2000/svg">
<path d="M23.7277 24.7013L5.82433 25.5284L23.6631 26.3524L24.8412 26.407H25.8768C26.0384 14.2597 35.8993 4.46087 48.0416 4.46087C48.6864 4.46087 49.3254 4.49035 49.9556 4.54342C49.9673 4.41664 49.9747 4.28839 49.9747 4.15718C49.9747 1.86189 48.1209 0 45.8323 0C43.5437 0 41.6899 1.86041 41.6899 4.15718C41.6899 4.28691 41.6972 4.41664 41.709 4.54342C34.7198 5.86281 28.8896 10.474 25.8738 16.7098L11.8426 17.5501L25.1629 18.3476C24.9763 18.8267 24.8074 19.3147 24.6546 19.8085L6.75711 20.6591L24.2081 21.4876C24.164 21.6807 24.1243 21.8739 24.0861 22.0685L0 22.8925L23.8261 23.7048C23.7865 24.035 23.7542 24.3667 23.7292 24.7013H23.7277Z" fill="#F59320"/>
<path d="M49.9563 4.54492C38.7087 5.51198 29.8598 14.9054 29.707 26.407H30.3607C30.3607 23.2213 32.9343 20.64 36.1072 20.64C39.2801 20.64 41.8537 23.2228 41.8537 26.407H55.5868C55.5868 23.2213 58.1603 20.64 61.3332 20.64C62.0574 20.64 62.7493 20.7756 63.3868 21.0203C62.1411 14.1684 56.4431 8.87606 49.4113 8.27312C49.855 8.23479 50.3045 8.21415 50.7569 8.21415C59.2635 8.21415 66.1778 15.0588 66.3291 23.5604C66.805 24.4006 67.0797 25.3721 67.0797 26.4085H67.9993C67.9993 15.5364 60.2271 6.48642 49.9548 4.5464L49.9563 4.54492Z" fill="#F59320"/>
<path d="M61.2973 23.4473C59.6682 23.4473 58.3477 24.7726 58.3477 26.4074C58.3477 26.8217 58.4329 27.2167 58.5856 27.5735C58.6547 27.7357 58.7384 27.8904 58.8339 28.0364C59.0263 28.3297 59.2687 28.5848 59.5492 28.7926C60.0384 29.1553 60.6421 29.3676 61.2973 29.3676C61.3928 29.3676 61.4882 29.3631 61.5808 29.3543C63.0762 29.2113 64.2469 27.9465 64.2469 26.4074C64.2469 24.7726 62.9263 23.4473 61.2973 23.4473Z" fill="#F59320"/>
<path d="M61.4674 21.1909C59.7193 21.1909 58.174 22.0577 57.2324 23.386C58.1167 22.2745 59.477 21.5624 61.0032 21.5624C63.6693 21.5624 65.8301 23.7309 65.8301 26.4066C65.8301 29.0822 63.828 31.0871 61.2999 31.2404C61.2015 31.2463 61.1031 31.2492 61.0032 31.2492C60.3025 31.2492 59.6371 31.0989 59.0378 30.8291C58.7278 30.6905 58.434 30.5195 58.1623 30.3205C57.9316 30.1525 57.7157 29.9623 57.5189 29.7559C57.4175 29.6498 57.322 29.5407 57.231 29.4272C57.3117 29.5407 57.3969 29.6512 57.4866 29.7574L44.2617 30.0316L58.0315 30.3176C58.2489 30.5092 58.481 30.6846 58.7293 30.838L48.2572 31.1328L60.2217 31.4704C60.6198 31.5691 61.037 31.6207 61.4674 31.6207C64.3377 31.6207 66.6645 29.2856 66.6645 26.4051C66.6645 23.5246 64.3377 21.1895 61.4674 21.1895V21.1909Z" fill="#F59320"/>
<path d="M35.8246 23.8203C34.1956 23.8203 32.875 25.1456 32.875 26.7805C32.875 27.0502 32.9103 27.3112 32.9778 27.5603C33.0234 27.7284 33.0836 27.892 33.157 28.0453C33.2863 28.3195 33.4552 28.5686 33.6579 28.7883C33.9018 29.0522 34.1912 29.2718 34.5158 29.434C34.7376 29.5445 34.9756 29.6271 35.2253 29.6802C35.4192 29.72 35.619 29.7406 35.8246 29.7406C35.8731 29.7406 35.9216 29.7406 35.97 29.7377C37.5315 29.661 38.7743 28.3667 38.7743 26.7805C38.7743 25.1942 37.4537 23.8203 35.8246 23.8203Z" fill="#F59320"/>
<path d="M35.9902 21.5664C34.2422 21.5664 32.6969 22.4332 31.7553 23.7615C32.6396 22.6499 33.9998 21.9379 35.5275 21.9379C38.1922 21.9379 40.3544 24.1064 40.3544 26.7821C40.3544 29.4577 38.1936 31.6262 35.5275 31.6262C35.1133 31.6262 34.7108 31.5731 34.3274 31.4744C33.8088 31.3417 33.3241 31.1235 32.8878 30.8375C32.6557 30.6857 32.4383 30.5132 32.2371 30.3245L33.1934 30.3451C33.5136 30.5427 33.8632 30.696 34.2334 30.8007C34.583 30.8994 34.9517 30.9525 35.3321 30.9555H35.3586C36.757 30.9555 37.9924 30.2626 38.7459 29.1997C38.0379 30.0886 36.9509 30.6577 35.7287 30.6577C35.2087 30.6577 34.7122 30.5545 34.2598 30.3673C33.8779 30.2095 33.5268 29.9913 33.2169 29.7245C33.0949 29.6213 32.9804 29.5093 32.8731 29.3899C32.716 29.2159 32.5735 29.0272 32.4486 28.8267C32.2914 28.5732 32.1622 28.2975 32.0667 28.0086C32.0226 27.8759 31.9844 27.7388 31.955 27.6002C31.8978 27.3363 31.8684 27.0636 31.8684 26.7835C31.8684 24.6445 33.5973 22.9094 35.7287 22.9094C36.9494 22.9094 38.0379 23.4799 38.7459 24.3673C37.9924 23.3045 36.757 22.6116 35.3586 22.6116C33.0626 22.6116 31.203 24.4794 31.203 26.7835C31.203 27.071 31.2323 27.3526 31.2881 27.6253L26.4186 27.8037L31.3778 27.985C31.4688 28.2887 31.5922 28.5776 31.7465 28.8488L22.9299 29.1039L32.0961 29.3692C32.2004 29.5004 32.3105 29.6257 32.4295 29.7422L18.2969 30.0356L32.1798 30.3245C32.3502 30.5103 32.5353 30.6842 32.7321 30.8434L22.2909 31.1382L33.6869 31.4596C34.3817 31.8061 35.1647 32.0006 35.9932 32.0006C38.8635 32.0006 41.1903 29.6655 41.1903 26.785C41.1903 23.9045 38.8635 21.5694 35.9932 21.5694L35.9902 21.5664Z" fill="#F59320"/>
<path d="M57.8976 29.3601C58.0343 29.4972 58.1797 29.624 58.3339 29.7389C58.6747 29.9984 59.0566 30.2048 59.4679 30.3478C59.8939 30.4967 60.3537 30.5777 60.8296 30.5777C62.2281 30.5777 63.4634 29.8834 64.217 28.822C63.6544 29.5296 62.8509 30.0338 61.9313 30.2107C61.6948 30.2564 61.451 30.28 61.1998 30.28C60.4683 30.28 59.7838 30.0751 59.2021 29.7212C59.0361 29.621 58.8804 29.5075 58.732 29.3837C58.5337 29.2186 58.3515 29.0328 58.19 28.8294C57.9858 28.5743 57.8139 28.2942 57.6788 27.992C57.623 27.8682 57.5745 27.7414 57.5319 27.6102C57.4085 27.2314 57.3409 26.826 57.3409 26.4043C57.3409 24.2653 59.0684 22.5302 61.2013 22.5302C62.422 22.5302 63.5104 23.0992 64.2185 23.9882C63.4649 22.9268 62.2295 22.2324 60.8311 22.2324C58.5352 22.2324 56.6755 24.1002 56.6755 26.4029C56.6755 26.8304 56.7401 27.2446 56.8591 27.6323L52.3818 27.796L56.9766 27.964C57.103 28.2795 57.2675 28.5758 57.4643 28.8485L48.8945 29.0962L57.8976 29.3557V29.3601Z" fill="#F59320"/>
<path d="M79.552 7.96H84.664L86.224 15.976L91.216 7.96H96.304L92.68 25H88L89.896 16.024L86.104 22.336H83.632L82.528 16.024L80.608 25H75.928L79.552 7.96ZM101.237 25.24C99.9086 25.24 98.8286 25 97.9966 24.52C97.1806 24.024 96.5806 23.368 96.1966 22.552C95.8286 21.736 95.6446 20.84 95.6446 19.864C95.6446 18.856 95.8286 17.888 96.1966 16.96C96.5646 16.032 97.0926 15.208 97.7806 14.488C98.4686 13.752 99.3006 13.176 100.277 12.76C101.269 12.344 102.389 12.136 103.637 12.136C104.981 12.136 106.061 12.376 106.877 12.856C107.693 13.336 108.285 13.984 108.653 14.8C109.037 15.6 109.229 16.496 109.229 17.488C109.229 18.496 109.045 19.464 108.677 20.392C108.309 21.32 107.781 22.152 107.093 22.888C106.405 23.608 105.565 24.184 104.573 24.616C103.597 25.032 102.485 25.24 101.237 25.24ZM101.885 21.4C102.221 21.4 102.541 21.32 102.845 21.16C103.165 20.984 103.445 20.744 103.685 20.44C103.941 20.12 104.133 19.752 104.261 19.336C104.405 18.92 104.477 18.472 104.477 17.992C104.477 17.56 104.421 17.2 104.309 16.912C104.197 16.608 104.029 16.376 103.805 16.216C103.581 16.056 103.309 15.976 102.989 15.976C102.653 15.976 102.325 16.064 102.005 16.24C101.701 16.4 101.421 16.64 101.165 16.96C100.925 17.264 100.733 17.624 100.589 18.04C100.461 18.456 100.397 18.904 100.397 19.384C100.397 19.8 100.453 20.16 100.565 20.464C100.677 20.768 100.845 21 101.069 21.16C101.293 21.32 101.565 21.4 101.885 21.4ZM110.619 22.696C110.619 22.52 110.627 22.344 110.643 22.168C110.659 21.992 110.691 21.8 110.739 21.592L111.963 15.808H110.499L111.243 12.376H112.707L113.547 8.416H118.107L117.267 12.376H119.571L118.851 15.808H116.523L115.635 19.984C115.619 20.064 115.603 20.144 115.587 20.224C115.587 20.288 115.587 20.352 115.587 20.416C115.587 20.672 115.651 20.856 115.779 20.968C115.907 21.064 116.083 21.112 116.307 21.112C116.435 21.112 116.579 21.096 116.739 21.064C116.915 21.032 117.099 20.984 117.291 20.92C117.499 20.856 117.707 20.784 117.915 20.704L117.963 24.304C117.499 24.48 117.019 24.648 116.523 24.808C116.027 24.952 115.539 25.064 115.059 25.144C114.579 25.224 114.115 25.264 113.667 25.264C112.803 25.264 112.075 25.072 111.483 24.688C110.907 24.304 110.619 23.64 110.619 22.696ZM125.119 25.24C123.791 25.24 122.711 25 121.879 24.52C121.063 24.024 120.463 23.368 120.079 22.552C119.711 21.736 119.527 20.84 119.527 19.864C119.527 18.856 119.711 17.888 120.079 16.96C120.447 16.032 120.975 15.208 121.663 14.488C122.351 13.752 123.183 13.176 124.159 12.76C125.151 12.344 126.271 12.136 127.519 12.136C128.863 12.136 129.943 12.376 130.759 12.856C131.575 13.336 132.167 13.984 132.535 14.8C132.919 15.6 133.111 16.496 133.111 17.488C133.111 18.496 132.927 19.464 132.559 20.392C132.191 21.32 131.663 22.152 130.975 22.888C130.287 23.608 129.447 24.184 128.455 24.616C127.479 25.032 126.367 25.24 125.119 25.24ZM125.767 21.4C126.103 21.4 126.423 21.32 126.727 21.16C127.047 20.984 127.327 20.744 127.567 20.44C127.823 20.12 128.015 19.752 128.143 19.336C128.287 18.92 128.359 18.472 128.359 17.992C128.359 17.56 128.303 17.2 128.191 16.912C128.079 16.608 127.911 16.376 127.687 16.216C127.463 16.056 127.191 15.976 126.871 15.976C126.535 15.976 126.207 16.064 125.887 16.24C125.583 16.4 125.303 16.64 125.047 16.96C124.807 17.264 124.615 17.624 124.471 18.04C124.343 18.456 124.279 18.904 124.279 19.384C124.279 19.8 124.335 20.16 124.447 20.464C124.559 20.768 124.727 21 124.951 21.16C125.175 21.32 125.447 21.4 125.767 21.4ZM140.976 25.24C140.096 25.24 139.376 25.056 138.816 24.688C138.256 24.304 137.864 23.752 137.64 23.032L137.232 25H133.272L136.992 7.48H141.552L140.112 14.248C140.56 13.592 141.144 13.08 141.864 12.712C142.584 12.328 143.336 12.136 144.12 12.136C144.984 12.136 145.712 12.352 146.304 12.784C146.912 13.216 147.368 13.816 147.672 14.584C147.992 15.336 148.152 16.208 148.152 17.2C148.152 18.32 147.952 19.368 147.552 20.344C147.168 21.32 146.64 22.176 145.968 22.912C145.296 23.632 144.528 24.2 143.664 24.616C142.816 25.032 141.92 25.24 140.976 25.24ZM140.544 21.4C140.928 21.4 141.288 21.32 141.624 21.16C141.96 20.984 142.256 20.752 142.512 20.464C142.768 20.16 142.968 19.808 143.112 19.408C143.272 19.008 143.352 18.576 143.352 18.112C143.352 17.696 143.288 17.328 143.16 17.008C143.048 16.688 142.88 16.44 142.656 16.264C142.432 16.072 142.16 15.976 141.84 15.976C141.568 15.976 141.272 16.056 140.952 16.216C140.648 16.376 140.352 16.6 140.064 16.888C139.792 17.16 139.552 17.48 139.344 17.848L138.864 20.104C139.008 20.392 139.152 20.632 139.296 20.824C139.456 21.016 139.632 21.16 139.824 21.256C140.032 21.352 140.272 21.4 140.544 21.4ZM151.007 12.376H155.567L152.879 25H148.319L151.007 12.376ZM152.039 7.48H156.599L155.783 11.32H151.223L152.039 7.48ZM156.65 22.696C156.65 22.52 156.658 22.344 156.674 22.168C156.69 21.992 156.722 21.8 156.77 21.592L157.994 15.808H156.53L157.274 12.376H158.738L159.578 8.416H164.138L163.298 12.376H165.602L164.882 15.808H162.554L161.666 19.984C161.65 20.064 161.634 20.144 161.618 20.224C161.618 20.288 161.618 20.352 161.618 20.416C161.618 20.672 161.682 20.856 161.81 20.968C161.938 21.064 162.114 21.112 162.338 21.112C162.466 21.112 162.61 21.096 162.77 21.064C162.946 21.032 163.13 20.984 163.322 20.92C163.53 20.856 163.738 20.784 163.946 20.704L163.994 24.304C163.53 24.48 163.05 24.648 162.554 24.808C162.058 24.952 161.57 25.064 161.09 25.144C160.61 25.224 160.146 25.264 159.698 25.264C158.834 25.264 158.106 25.072 157.514 24.688C156.938 24.304 156.65 23.64 156.65 22.696ZM170.983 25.24C169.895 25.24 168.943 25.024 168.127 24.592C167.311 24.144 166.679 23.52 166.231 22.72C165.783 21.904 165.559 20.96 165.559 19.888C165.559 18.8 165.775 17.792 166.207 16.864C166.639 15.92 167.231 15.096 167.983 14.392C168.751 13.688 169.639 13.136 170.647 12.736C171.655 12.336 172.735 12.136 173.887 12.136C174.911 12.136 175.783 12.28 176.503 12.568C177.223 12.856 177.775 13.28 178.159 13.84C178.559 14.384 178.759 15.04 178.759 15.808C178.759 17.216 178.103 18.288 176.791 19.024C175.479 19.744 173.551 20.104 171.007 20.104C170.495 20.104 169.951 20.096 169.375 20.08C168.815 20.048 168.255 20 167.695 19.936L168.271 17.224C168.687 17.272 169.119 17.312 169.567 17.344C170.015 17.36 170.487 17.368 170.983 17.368C171.799 17.368 172.447 17.336 172.927 17.272C173.423 17.208 173.775 17.096 173.983 16.936C174.191 16.776 174.295 16.568 174.295 16.312C174.295 16.12 174.239 15.96 174.127 15.832C174.031 15.688 173.887 15.576 173.695 15.496C173.519 15.416 173.311 15.376 173.071 15.376C172.671 15.376 172.287 15.504 171.919 15.76C171.551 16 171.231 16.336 170.959 16.768C170.687 17.2 170.471 17.704 170.311 18.28C170.151 18.856 170.071 19.472 170.071 20.128C170.071 20.56 170.127 20.912 170.239 21.184C170.367 21.456 170.559 21.656 170.815 21.784C171.087 21.912 171.431 21.976 171.847 21.976C172.359 21.976 172.815 21.864 173.215 21.64C173.615 21.416 173.943 21.096 174.199 20.68L177.775 21.832C177.311 22.504 176.711 23.096 175.975 23.608C175.255 24.12 174.463 24.52 173.599 24.808C172.735 25.096 171.863 25.24 170.983 25.24ZM183.568 25.24C182.528 25.24 181.536 25.064 180.592 24.712C179.648 24.344 178.896 23.816 178.336 23.128L180.448 20.392C181.088 20.92 181.72 21.328 182.344 21.616C182.984 21.904 183.584 22.048 184.144 22.048C184.368 22.048 184.536 22.016 184.648 21.952C184.776 21.888 184.864 21.808 184.912 21.712C184.976 21.6 185.008 21.472 185.008 21.328C185.008 21.152 184.912 20.984 184.72 20.824C184.528 20.648 184.176 20.48 183.664 20.32C182.752 20.016 182.016 19.72 181.456 19.432C180.896 19.128 180.48 18.8 180.208 18.448C179.952 18.08 179.824 17.656 179.824 17.176C179.824 16.232 180.088 15.384 180.616 14.632C181.16 13.864 181.88 13.256 182.776 12.808C183.688 12.344 184.688 12.112 185.776 12.112C186.672 12.112 187.488 12.232 188.224 12.472C188.96 12.712 189.672 13.2 190.36 13.936L188.08 16.672C187.424 16.16 186.872 15.8 186.424 15.592C185.976 15.368 185.544 15.256 185.128 15.256C184.952 15.256 184.792 15.288 184.648 15.352C184.52 15.416 184.416 15.504 184.336 15.616C184.272 15.728 184.24 15.864 184.24 16.024C184.24 16.232 184.344 16.408 184.552 16.552C184.776 16.68 185.168 16.832 185.728 17.008C186.656 17.28 187.4 17.576 187.96 17.896C188.52 18.2 188.928 18.544 189.184 18.928C189.44 19.312 189.568 19.768 189.568 20.296C189.568 21.272 189.312 22.136 188.8 22.888C188.304 23.624 187.608 24.2 186.712 24.616C185.816 25.032 184.768 25.24 183.568 25.24Z" fill="#F59600"/>
<path d="M79.552 7.96H84.664L86.224 15.976L91.216 7.96H96.304L92.68 25H88L89.896 16.024L86.104 22.336H83.632L82.528 16.024L80.608 25H75.928L79.552 7.96ZM101.237 25.24C99.9086 25.24 98.8286 25 97.9966 24.52C97.1806 24.024 96.5806 23.368 96.1966 22.552C95.8286 21.736 95.6446 20.84 95.6446 19.864C95.6446 18.856 95.8286 17.888 96.1966 16.96C96.5646 16.032 97.0926 15.208 97.7806 14.488C98.4686 13.752 99.3006 13.176 100.277 12.76C101.269 12.344 102.389 12.136 103.637 12.136C104.981 12.136 106.061 12.376 106.877 12.856C107.693 13.336 108.285 13.984 108.653 14.8C109.037 15.6 109.229 16.496 109.229 17.488C109.229 18.496 109.045 19.464 108.677 20.392C108.309 21.32 107.781 22.152 107.093 22.888C106.405 23.608 105.565 24.184 104.573 24.616C103.597 25.032 102.485 25.24 101.237 25.24ZM101.885 21.4C102.221 21.4 102.541 21.32 102.845 21.16C103.165 20.984 103.445 20.744 103.685 20.44C103.941 20.12 104.133 19.752 104.261 19.336C104.405 18.92 104.477 18.472 104.477 17.992C104.477 17.56 104.421 17.2 104.309 16.912C104.197 16.608 104.029 16.376 103.805 16.216C103.581 16.056 103.309 15.976 102.989 15.976C102.653 15.976 102.325 16.064 102.005 16.24C101.701 16.4 101.421 16.64 101.165 16.96C100.925 17.264 100.733 17.624 100.589 18.04C100.461 18.456 100.397 18.904 100.397 19.384C100.397 19.8 100.453 20.16 100.565 20.464C100.677 20.768 100.845 21 101.069 21.16C101.293 21.32 101.565 21.4 101.885 21.4ZM110.619 22.696C110.619 22.52 110.627 22.344 110.643 22.168C110.659 21.992 110.691 21.8 110.739 21.592L111.963 15.808H110.499L111.243 12.376H112.707L113.547 8.416H118.107L117.267 12.376H119.571L118.851 15.808H116.523L115.635 19.984C115.619 20.064 115.603 20.144 115.587 20.224C115.587 20.288 115.587 20.352 115.587 20.416C115.587 20.672 115.651 20.856 115.779 20.968C115.907 21.064 116.083 21.112 116.307 21.112C116.435 21.112 116.579 21.096 116.739 21.064C116.915 21.032 117.099 20.984 117.291 20.92C117.499 20.856 117.707 20.784 117.915 20.704L117.963 24.304C117.499 24.48 117.019 24.648 116.523 24.808C116.027 24.952 115.539 25.064 115.059 25.144C114.579 25.224 114.115 25.264 113.667 25.264C112.803 25.264 112.075 25.072 111.483 24.688C110.907 24.304 110.619 23.64 110.619 22.696ZM125.119 25.24C123.791 25.24 122.711 25 121.879 24.52C121.063 24.024 120.463 23.368 120.079 22.552C119.711 21.736 119.527 20.84 119.527 19.864C119.527 18.856 119.711 17.888 120.079 16.96C120.447 16.032 120.975 15.208 121.663 14.488C122.351 13.752 123.183 13.176 124.159 12.76C125.151 12.344 126.271 12.136 127.519 12.136C128.863 12.136 129.943 12.376 130.759 12.856C131.575 13.336 132.167 13.984 132.535 14.8C132.919 15.6 133.111 16.496 133.111 17.488C133.111 18.496 132.927 19.464 132.559 20.392C132.191 21.32 131.663 22.152 130.975 22.888C130.287 23.608 129.447 24.184 128.455 24.616C127.479 25.032 126.367 25.24 125.119 25.24ZM125.767 21.4C126.103 21.4 126.423 21.32 126.727 21.16C127.047 20.984 127.327 20.744 127.567 20.44C127.823 20.12 128.015 19.752 128.143 19.336C128.287 18.92 128.359 18.472 128.359 17.992C128.359 17.56 128.303 17.2 128.191 16.912C128.079 16.608 127.911 16.376 127.687 16.216C127.463 16.056 127.191 15.976 126.871 15.976C126.535 15.976 126.207 16.064 125.887 16.24C125.583 16.4 125.303 16.64 125.047 16.96C124.807 17.264 124.615 17.624 124.471 18.04C124.343 18.456 124.279 18.904 124.279 19.384C124.279 19.8 124.335 20.16 124.447 20.464C124.559 20.768 124.727 21 124.951 21.16C125.175 21.32 125.447 21.4 125.767 21.4ZM140.976 25.24C140.096 25.24 139.376 25.056 138.816 24.688C138.256 24.304 137.864 23.752 137.64 23.032L137.232 25H133.272L136.992 7.48H141.552L140.112 14.248C140.56 13.592 141.144 13.08 141.864 12.712C142.584 12.328 143.336 12.136 144.12 12.136C144.984 12.136 145.712 12.352 146.304 12.784C146.912 13.216 147.368 13.816 147.672 14.584C147.992 15.336 148.152 16.208 148.152 17.2C148.152 18.32 147.952 19.368 147.552 20.344C147.168 21.32 146.64 22.176 145.968 22.912C145.296 23.632 144.528 24.2 143.664 24.616C142.816 25.032 141.92 25.24 140.976 25.24ZM140.544 21.4C140.928 21.4 141.288 21.32 141.624 21.16C141.96 20.984 142.256 20.752 142.512 20.464C142.768 20.16 142.968 19.808 143.112 19.408C143.272 19.008 143.352 18.576 143.352 18.112C143.352 17.696 143.288 17.328 143.16 17.008C143.048 16.688 142.88 16.44 142.656 16.264C142.432 16.072 142.16 15.976 141.84 15.976C141.568 15.976 141.272 16.056 140.952 16.216C140.648 16.376 140.352 16.6 140.064 16.888C139.792 17.16 139.552 17.48 139.344 17.848L138.864 20.104C139.008 20.392 139.152 20.632 139.296 20.824C139.456 21.016 139.632 21.16 139.824 21.256C140.032 21.352 140.272 21.4 140.544 21.4ZM151.007 12.376H155.567L152.879 25H148.319L151.007 12.376ZM152.039 7.48H156.599L155.783 11.32H151.223L152.039 7.48ZM156.65 22.696C156.65 22.52 156.658 22.344 156.674 22.168C156.69 21.992 156.722 21.8 156.77 21.592L157.994 15.808H156.53L157.274 12.376H158.738L159.578 8.416H164.138L163.298 12.376H165.602L164.882 15.808H162.554L161.666 19.984C161.65 20.064 161.634 20.144 161.618 20.224C161.618 20.288 161.618 20.352 161.618 20.416C161.618 20.672 161.682 20.856 161.81 20.968C161.938 21.064 162.114 21.112 162.338 21.112C162.466 21.112 162.61 21.096 162.77 21.064C162.946 21.032 163.13 20.984 163.322 20.92C163.53 20.856 163.738 20.784 163.946 20.704L163.994 24.304C163.53 24.48 163.05 24.648 162.554 24.808C162.058 24.952 161.57 25.064 161.09 25.144C160.61 25.224 160.146 25.264 159.698 25.264C158.834 25.264 158.106 25.072 157.514 24.688C156.938 24.304 156.65 23.64 156.65 22.696ZM170.983 25.24C169.895 25.24 168.943 25.024 168.127 24.592C167.311 24.144 166.679 23.52 166.231 22.72C165.783 21.904 165.559 20.96 165.559 19.888C165.559 18.8 165.775 17.792 166.207 16.864C166.639 15.92 167.231 15.096 167.983 14.392C168.751 13.688 169.639 13.136 170.647 12.736C171.655 12.336 172.735 12.136 173.887 12.136C174.911 12.136 175.783 12.28 176.503 12.568C177.223 12.856 177.775 13.28 178.159 13.84C178.559 14.384 178.759 15.04 178.759 15.808C178.759 17.216 178.103 18.288 176.791 19.024C175.479 19.744 173.551 20.104 171.007 20.104C170.495 20.104 169.951 20.096 169.375 20.08C168.815 20.048 168.255 20 167.695 19.936L168.271 17.224C168.687 17.272 169.119 17.312 169.567 17.344C170.015 17.36 170.487 17.368 170.983 17.368C171.799 17.368 172.447 17.336 172.927 17.272C173.423 17.208 173.775 17.096 173.983 16.936C174.191 16.776 174.295 16.568 174.295 16.312C174.295 16.12 174.239 15.96 174.127 15.832C174.031 15.688 173.887 15.576 173.695 15.496C173.519 15.416 173.311 15.376 173.071 15.376C172.671 15.376 172.287 15.504 171.919 15.76C171.551 16 171.231 16.336 170.959 16.768C170.687 17.2 170.471 17.704 170.311 18.28C170.151 18.856 170.071 19.472 170.071 20.128C170.071 20.56 170.127 20.912 170.239 21.184C170.367 21.456 170.559 21.656 170.815 21.784C171.087 21.912 171.431 21.976 171.847 21.976C172.359 21.976 172.815 21.864 173.215 21.64C173.615 21.416 173.943 21.096 174.199 20.68L177.775 21.832C177.311 22.504 176.711 23.096 175.975 23.608C175.255 24.12 174.463 24.52 173.599 24.808C172.735 25.096 171.863 25.24 170.983 25.24ZM183.568 25.24C182.528 25.24 181.536 25.064 180.592 24.712C179.648 24.344 178.896 23.816 178.336 23.128L180.448 20.392C181.088 20.92 181.72 21.328 182.344 21.616C182.984 21.904 183.584 22.048 184.144 22.048C184.368 22.048 184.536 22.016 184.648 21.952C184.776 21.888 184.864 21.808 184.912 21.712C184.976 21.6 185.008 21.472 185.008 21.328C185.008 21.152 184.912 20.984 184.72 20.824C184.528 20.648 184.176 20.48 183.664 20.32C182.752 20.016 182.016 19.72 181.456 19.432C180.896 19.128 180.48 18.8 180.208 18.448C179.952 18.08 179.824 17.656 179.824 17.176C179.824 16.232 180.088 15.384 180.616 14.632C181.16 13.864 181.88 13.256 182.776 12.808C183.688 12.344 184.688 12.112 185.776 12.112C186.672 12.112 187.488 12.232 188.224 12.472C188.96 12.712 189.672 13.2 190.36 13.936L188.08 16.672C187.424 16.16 186.872 15.8 186.424 15.592C185.976 15.368 185.544 15.256 185.128 15.256C184.952 15.256 184.792 15.288 184.648 15.352C184.52 15.416 184.416 15.504 184.336 15.616C184.272 15.728 184.24 15.864 184.24 16.024C184.24 16.232 184.344 16.408 184.552 16.552C184.776 16.68 185.168 16.832 185.728 17.008C186.656 17.28 187.4 17.576 187.96 17.896C188.52 18.2 188.928 18.544 189.184 18.928C189.44 19.312 189.568 19.768 189.568 20.296C189.568 21.272 189.312 22.136 188.8 22.888C188.304 23.624 187.608 24.2 186.712 24.616C185.816 25.032 184.768 25.24 183.568 25.24Z" fill="#F59600"/>
</svg>
